<mxfile host="app.diagrams.net" agent="Mozilla/5.0 (Windows NT 10.0; Win64; x64) AppleWebKit/537.36 (KHTML, like Gecko) Chrome/126.0.0.0 Safari/537.36" version="24.7.4">
  <diagram name="Page-1" id="nBHqoAJNdwLbzsrDjkd2">
    <mxGraphModel dx="193" dy="120" grid="1" gridSize="10" guides="1" tooltips="1" connect="1" arrows="1" fold="1" page="1" pageScale="1" pageWidth="850" pageHeight="1100" math="0" shadow="0">
      <root>
        <mxCell id="0" />
        <mxCell id="1" parent="0" />
        <mxCell id="0ZdLkqDQG_sH-fMetIsI-3" value="Mahasiswa" style="html=1;dashed=0;whiteSpace=wrap;" vertex="1" parent="1">
          <mxGeometry x="170" y="355" width="100" height="50" as="geometry" />
        </mxCell>
        <mxCell id="0ZdLkqDQG_sH-fMetIsI-5" value="Jurusan" style="ellipse;whiteSpace=wrap;html=1;align=center;" vertex="1" parent="1">
          <mxGeometry x="10" y="360" width="100" height="40" as="geometry" />
        </mxCell>
        <mxCell id="0ZdLkqDQG_sH-fMetIsI-6" value="Nim" style="ellipse;whiteSpace=wrap;html=1;align=center;" vertex="1" parent="1">
          <mxGeometry x="40" y="300" width="100" height="40" as="geometry" />
        </mxCell>
        <mxCell id="0ZdLkqDQG_sH-fMetIsI-7" value="Alamat" style="ellipse;whiteSpace=wrap;html=1;align=center;" vertex="1" parent="1">
          <mxGeometry x="40" y="425" width="100" height="40" as="geometry" />
        </mxCell>
        <mxCell id="0ZdLkqDQG_sH-fMetIsI-11" value="" style="endArrow=none;html=1;rounded=0;exitX=1;exitY=0.5;exitDx=0;exitDy=0;entryX=0.5;entryY=1;entryDx=0;entryDy=0;" edge="1" parent="1" source="0ZdLkqDQG_sH-fMetIsI-7" target="0ZdLkqDQG_sH-fMetIsI-3">
          <mxGeometry width="50" height="50" relative="1" as="geometry">
            <mxPoint x="240" y="460" as="sourcePoint" />
            <mxPoint x="290" y="410" as="targetPoint" />
          </mxGeometry>
        </mxCell>
        <mxCell id="0ZdLkqDQG_sH-fMetIsI-12" value="" style="endArrow=none;html=1;rounded=0;entryX=0;entryY=0.5;entryDx=0;entryDy=0;" edge="1" parent="1" source="0ZdLkqDQG_sH-fMetIsI-5" target="0ZdLkqDQG_sH-fMetIsI-3">
          <mxGeometry width="50" height="50" relative="1" as="geometry">
            <mxPoint x="240" y="430" as="sourcePoint" />
            <mxPoint x="290" y="380" as="targetPoint" />
          </mxGeometry>
        </mxCell>
        <mxCell id="0ZdLkqDQG_sH-fMetIsI-13" value="" style="endArrow=none;html=1;rounded=0;entryX=0;entryY=0;entryDx=0;entryDy=0;exitX=1;exitY=0.5;exitDx=0;exitDy=0;" edge="1" parent="1" source="0ZdLkqDQG_sH-fMetIsI-6" target="0ZdLkqDQG_sH-fMetIsI-3">
          <mxGeometry width="50" height="50" relative="1" as="geometry">
            <mxPoint x="210" y="350" as="sourcePoint" />
            <mxPoint x="260" y="300" as="targetPoint" />
          </mxGeometry>
        </mxCell>
        <mxCell id="0ZdLkqDQG_sH-fMetIsI-14" value="Name" style="ellipse;whiteSpace=wrap;html=1;align=center;fontStyle=4;" vertex="1" parent="1">
          <mxGeometry x="170" y="260" width="100" height="40" as="geometry" />
        </mxCell>
        <mxCell id="0ZdLkqDQG_sH-fMetIsI-18" value="" style="endArrow=none;html=1;rounded=0;entryX=0.5;entryY=1;entryDx=0;entryDy=0;exitX=0.5;exitY=0;exitDx=0;exitDy=0;" edge="1" parent="1" source="0ZdLkqDQG_sH-fMetIsI-3" target="0ZdLkqDQG_sH-fMetIsI-14">
          <mxGeometry width="50" height="50" relative="1" as="geometry">
            <mxPoint x="330" y="360" as="sourcePoint" />
            <mxPoint x="380" y="310" as="targetPoint" />
          </mxGeometry>
        </mxCell>
        <mxCell id="0ZdLkqDQG_sH-fMetIsI-19" value="Nama_Depan" style="ellipse;whiteSpace=wrap;html=1;align=center;" vertex="1" parent="1">
          <mxGeometry x="60" y="180" width="100" height="40" as="geometry" />
        </mxCell>
        <mxCell id="0ZdLkqDQG_sH-fMetIsI-20" value="Nama_Tengah" style="ellipse;whiteSpace=wrap;html=1;align=center;" vertex="1" parent="1">
          <mxGeometry x="170" y="140" width="100" height="40" as="geometry" />
        </mxCell>
        <mxCell id="0ZdLkqDQG_sH-fMetIsI-21" value="Nama_Belakang" style="ellipse;whiteSpace=wrap;html=1;align=center;" vertex="1" parent="1">
          <mxGeometry x="280" y="180" width="100" height="40" as="geometry" />
        </mxCell>
        <mxCell id="0ZdLkqDQG_sH-fMetIsI-22" value="" style="endArrow=none;html=1;rounded=0;entryX=0.5;entryY=1;entryDx=0;entryDy=0;exitX=0.68;exitY=0.085;exitDx=0;exitDy=0;exitPerimeter=0;" edge="1" parent="1" source="0ZdLkqDQG_sH-fMetIsI-14" target="0ZdLkqDQG_sH-fMetIsI-21">
          <mxGeometry width="50" height="50" relative="1" as="geometry">
            <mxPoint x="340" y="270" as="sourcePoint" />
            <mxPoint x="390" y="220" as="targetPoint" />
          </mxGeometry>
        </mxCell>
        <mxCell id="0ZdLkqDQG_sH-fMetIsI-23" value="" style="endArrow=none;html=1;rounded=0;entryX=0.5;entryY=1;entryDx=0;entryDy=0;exitX=0.5;exitY=0;exitDx=0;exitDy=0;" edge="1" parent="1" source="0ZdLkqDQG_sH-fMetIsI-14" target="0ZdLkqDQG_sH-fMetIsI-20">
          <mxGeometry width="50" height="50" relative="1" as="geometry">
            <mxPoint x="330" y="270" as="sourcePoint" />
            <mxPoint x="380" y="220" as="targetPoint" />
          </mxGeometry>
        </mxCell>
        <mxCell id="0ZdLkqDQG_sH-fMetIsI-24" value="" style="endArrow=none;html=1;rounded=0;entryX=0.5;entryY=1;entryDx=0;entryDy=0;" edge="1" parent="1" source="0ZdLkqDQG_sH-fMetIsI-14" target="0ZdLkqDQG_sH-fMetIsI-19">
          <mxGeometry width="50" height="50" relative="1" as="geometry">
            <mxPoint x="280" y="280" as="sourcePoint" />
            <mxPoint x="330" y="230" as="targetPoint" />
          </mxGeometry>
        </mxCell>
        <mxCell id="0ZdLkqDQG_sH-fMetIsI-27" value="" style="endArrow=none;html=1;rounded=0;exitX=1;exitY=0.5;exitDx=0;exitDy=0;entryX=-0.016;entryY=0.499;entryDx=0;entryDy=0;entryPerimeter=0;" edge="1" parent="1" source="0ZdLkqDQG_sH-fMetIsI-3" target="0ZdLkqDQG_sH-fMetIsI-29">
          <mxGeometry relative="1" as="geometry">
            <mxPoint x="340" y="390" as="sourcePoint" />
            <mxPoint x="470" y="385" as="targetPoint" />
            <Array as="points">
              <mxPoint x="380" y="380" />
            </Array>
          </mxGeometry>
        </mxCell>
        <mxCell id="0ZdLkqDQG_sH-fMetIsI-28" value="MANY" style="edgeLabel;html=1;align=center;verticalAlign=middle;resizable=0;points=[];" vertex="1" connectable="0" parent="0ZdLkqDQG_sH-fMetIsI-27">
          <mxGeometry x="0.2379" y="-1" relative="1" as="geometry">
            <mxPoint x="-27" y="-1" as="offset" />
          </mxGeometry>
        </mxCell>
        <mxCell id="0ZdLkqDQG_sH-fMetIsI-29" value="Mendaftar" style="rhombus;whiteSpace=wrap;html=1;" vertex="1" parent="1">
          <mxGeometry x="480" y="340" width="80" height="80" as="geometry" />
        </mxCell>
        <mxCell id="0ZdLkqDQG_sH-fMetIsI-30" value="Alamat" style="ellipse;whiteSpace=wrap;html=1;align=center;fontStyle=4;" vertex="1" parent="1">
          <mxGeometry x="350" y="270" width="100" height="40" as="geometry" />
        </mxCell>
        <mxCell id="0ZdLkqDQG_sH-fMetIsI-31" value="Jurusan&amp;nbsp;" style="ellipse;whiteSpace=wrap;html=1;align=center;fontStyle=4;" vertex="1" parent="1">
          <mxGeometry x="410" y="200" width="100" height="40" as="geometry" />
        </mxCell>
        <mxCell id="0ZdLkqDQG_sH-fMetIsI-33" value="Nim" style="ellipse;whiteSpace=wrap;html=1;align=center;fontStyle=4;" vertex="1" parent="1">
          <mxGeometry x="530" y="200" width="100" height="40" as="geometry" />
        </mxCell>
        <mxCell id="0ZdLkqDQG_sH-fMetIsI-34" value="Nama" style="ellipse;whiteSpace=wrap;html=1;align=center;fontStyle=4;" vertex="1" parent="1">
          <mxGeometry x="590" y="270" width="100" height="40" as="geometry" />
        </mxCell>
        <mxCell id="0ZdLkqDQG_sH-fMetIsI-35" value="" style="endArrow=none;html=1;rounded=0;entryX=0.626;entryY=1.071;entryDx=0;entryDy=0;entryPerimeter=0;exitX=0.375;exitY=0.125;exitDx=0;exitDy=0;exitPerimeter=0;" edge="1" parent="1" source="0ZdLkqDQG_sH-fMetIsI-29" target="0ZdLkqDQG_sH-fMetIsI-30">
          <mxGeometry width="50" height="50" relative="1" as="geometry">
            <mxPoint x="460" y="360" as="sourcePoint" />
            <mxPoint x="510" y="310" as="targetPoint" />
          </mxGeometry>
        </mxCell>
        <mxCell id="0ZdLkqDQG_sH-fMetIsI-36" value="" style="endArrow=none;html=1;rounded=0;entryX=0.5;entryY=1;entryDx=0;entryDy=0;exitX=0.457;exitY=0.027;exitDx=0;exitDy=0;exitPerimeter=0;" edge="1" parent="1" source="0ZdLkqDQG_sH-fMetIsI-29" target="0ZdLkqDQG_sH-fMetIsI-31">
          <mxGeometry width="50" height="50" relative="1" as="geometry">
            <mxPoint x="480" y="340" as="sourcePoint" />
            <mxPoint x="530" y="290" as="targetPoint" />
          </mxGeometry>
        </mxCell>
        <mxCell id="0ZdLkqDQG_sH-fMetIsI-37" value="" style="endArrow=none;html=1;rounded=0;entryX=0.378;entryY=0.992;entryDx=0;entryDy=0;entryPerimeter=0;exitX=0.551;exitY=0.043;exitDx=0;exitDy=0;exitPerimeter=0;" edge="1" parent="1" source="0ZdLkqDQG_sH-fMetIsI-29" target="0ZdLkqDQG_sH-fMetIsI-33">
          <mxGeometry width="50" height="50" relative="1" as="geometry">
            <mxPoint x="520" y="340" as="sourcePoint" />
            <mxPoint x="570" y="290" as="targetPoint" />
          </mxGeometry>
        </mxCell>
        <mxCell id="0ZdLkqDQG_sH-fMetIsI-38" value="" style="endArrow=none;html=1;rounded=0;exitX=0.666;exitY=0.126;exitDx=0;exitDy=0;exitPerimeter=0;entryX=0.116;entryY=0.815;entryDx=0;entryDy=0;entryPerimeter=0;" edge="1" parent="1" source="0ZdLkqDQG_sH-fMetIsI-29" target="0ZdLkqDQG_sH-fMetIsI-34">
          <mxGeometry width="50" height="50" relative="1" as="geometry">
            <mxPoint x="555" y="360" as="sourcePoint" />
            <mxPoint x="605" y="310" as="targetPoint" />
          </mxGeometry>
        </mxCell>
        <mxCell id="0ZdLkqDQG_sH-fMetIsI-42" value="" style="endArrow=none;html=1;rounded=0;entryX=0.5;entryY=1;entryDx=0;entryDy=0;exitX=0.503;exitY=-0.051;exitDx=0;exitDy=0;exitPerimeter=0;" edge="1" parent="1" source="0ZdLkqDQG_sH-fMetIsI-43" target="0ZdLkqDQG_sH-fMetIsI-29">
          <mxGeometry width="50" height="50" relative="1" as="geometry">
            <mxPoint x="520" y="500" as="sourcePoint" />
            <mxPoint x="590" y="450" as="targetPoint" />
          </mxGeometry>
        </mxCell>
        <mxCell id="0ZdLkqDQG_sH-fMetIsI-43" value="Anggota&lt;div&gt;Perpustakaan&lt;/div&gt;" style="rounded=1;whiteSpace=wrap;html=1;" vertex="1" parent="1">
          <mxGeometry x="460" y="500" width="120" height="60" as="geometry" />
        </mxCell>
        <mxCell id="0ZdLkqDQG_sH-fMetIsI-46" value="Nama_Anggota" style="ellipse;whiteSpace=wrap;html=1;align=center;fontStyle=4;" vertex="1" parent="1">
          <mxGeometry x="660" y="420" width="100" height="40" as="geometry" />
        </mxCell>
        <mxCell id="0ZdLkqDQG_sH-fMetIsI-47" value="Nama" style="ellipse;whiteSpace=wrap;html=1;align=center;fontStyle=4;" vertex="1" parent="1">
          <mxGeometry x="690" y="470" width="100" height="40" as="geometry" />
        </mxCell>
        <mxCell id="0ZdLkqDQG_sH-fMetIsI-48" value="Jurusan" style="ellipse;whiteSpace=wrap;html=1;align=center;fontStyle=4;" vertex="1" parent="1">
          <mxGeometry x="700" y="520" width="100" height="40" as="geometry" />
        </mxCell>
        <mxCell id="0ZdLkqDQG_sH-fMetIsI-49" value="Masa_Berlaku" style="ellipse;whiteSpace=wrap;html=1;align=center;fontStyle=4;" vertex="1" parent="1">
          <mxGeometry x="660" y="580" width="100" height="40" as="geometry" />
        </mxCell>
        <mxCell id="0ZdLkqDQG_sH-fMetIsI-50" value="" style="endArrow=none;html=1;rounded=0;exitX=1;exitY=0.5;exitDx=0;exitDy=0;entryX=0;entryY=0.5;entryDx=0;entryDy=0;" edge="1" parent="1" source="0ZdLkqDQG_sH-fMetIsI-43" target="0ZdLkqDQG_sH-fMetIsI-46">
          <mxGeometry width="50" height="50" relative="1" as="geometry">
            <mxPoint x="630" y="560" as="sourcePoint" />
            <mxPoint x="680" y="510" as="targetPoint" />
            <Array as="points" />
          </mxGeometry>
        </mxCell>
        <mxCell id="0ZdLkqDQG_sH-fMetIsI-51" value="" style="endArrow=none;html=1;rounded=0;exitX=1;exitY=0.5;exitDx=0;exitDy=0;entryX=0;entryY=0.5;entryDx=0;entryDy=0;" edge="1" parent="1" source="0ZdLkqDQG_sH-fMetIsI-43" target="0ZdLkqDQG_sH-fMetIsI-47">
          <mxGeometry width="50" height="50" relative="1" as="geometry">
            <mxPoint x="650" y="560" as="sourcePoint" />
            <mxPoint x="700" y="510" as="targetPoint" />
          </mxGeometry>
        </mxCell>
        <mxCell id="0ZdLkqDQG_sH-fMetIsI-52" value="" style="endArrow=none;html=1;rounded=0;exitX=1;exitY=0.5;exitDx=0;exitDy=0;entryX=0;entryY=0.5;entryDx=0;entryDy=0;" edge="1" parent="1" source="0ZdLkqDQG_sH-fMetIsI-43" target="0ZdLkqDQG_sH-fMetIsI-48">
          <mxGeometry width="50" height="50" relative="1" as="geometry">
            <mxPoint x="650" y="560" as="sourcePoint" />
            <mxPoint x="700" y="510" as="targetPoint" />
          </mxGeometry>
        </mxCell>
        <mxCell id="0ZdLkqDQG_sH-fMetIsI-53" value="" style="endArrow=none;html=1;rounded=0;exitX=1;exitY=0.5;exitDx=0;exitDy=0;entryX=0;entryY=0.5;entryDx=0;entryDy=0;" edge="1" parent="1" source="0ZdLkqDQG_sH-fMetIsI-43" target="0ZdLkqDQG_sH-fMetIsI-49">
          <mxGeometry width="50" height="50" relative="1" as="geometry">
            <mxPoint x="650" y="560" as="sourcePoint" />
            <mxPoint x="650" y="590" as="targetPoint" />
          </mxGeometry>
        </mxCell>
        <mxCell id="0ZdLkqDQG_sH-fMetIsI-54" value="" style="endArrow=none;html=1;rounded=0;entryX=0.5;entryY=1;entryDx=0;entryDy=0;exitX=0.501;exitY=-0.05;exitDx=0;exitDy=0;exitPerimeter=0;" edge="1" parent="1" source="0ZdLkqDQG_sH-fMetIsI-59" target="0ZdLkqDQG_sH-fMetIsI-43">
          <mxGeometry width="50" height="50" relative="1" as="geometry">
            <mxPoint x="520" y="740" as="sourcePoint" />
            <mxPoint x="700" y="880" as="targetPoint" />
          </mxGeometry>
        </mxCell>
        <mxCell id="0ZdLkqDQG_sH-fMetIsI-79" value="1" style="edgeLabel;html=1;align=center;verticalAlign=middle;resizable=0;points=[];" vertex="1" connectable="0" parent="0ZdLkqDQG_sH-fMetIsI-54">
          <mxGeometry x="0.4652" y="-1" relative="1" as="geometry">
            <mxPoint as="offset" />
          </mxGeometry>
        </mxCell>
        <mxCell id="0ZdLkqDQG_sH-fMetIsI-55" value="Nama_Anggota" style="ellipse;whiteSpace=wrap;html=1;align=center;fontStyle=4;" vertex="1" parent="1">
          <mxGeometry x="650" y="650" width="100" height="40" as="geometry" />
        </mxCell>
        <mxCell id="0ZdLkqDQG_sH-fMetIsI-56" value="nomer_buku" style="ellipse;whiteSpace=wrap;html=1;align=center;fontStyle=4;" vertex="1" parent="1">
          <mxGeometry x="680" y="700" width="100" height="40" as="geometry" />
        </mxCell>
        <mxCell id="0ZdLkqDQG_sH-fMetIsI-57" value="judul_buku" style="ellipse;whiteSpace=wrap;html=1;align=center;fontStyle=4;" vertex="1" parent="1">
          <mxGeometry x="680" y="760" width="100" height="40" as="geometry" />
        </mxCell>
        <mxCell id="0ZdLkqDQG_sH-fMetIsI-58" value="denda" style="ellipse;whiteSpace=wrap;html=1;align=center;fontStyle=4;" vertex="1" parent="1">
          <mxGeometry x="660" y="820" width="100" height="40" as="geometry" />
        </mxCell>
        <mxCell id="0ZdLkqDQG_sH-fMetIsI-59" value="meminjam" style="rhombus;whiteSpace=wrap;html=1;" vertex="1" parent="1">
          <mxGeometry x="480" y="660" width="80" height="80" as="geometry" />
        </mxCell>
        <mxCell id="0ZdLkqDQG_sH-fMetIsI-60" value="" style="endArrow=none;html=1;rounded=0;entryX=1;entryY=0.5;entryDx=0;entryDy=0;exitX=-0.019;exitY=0.661;exitDx=0;exitDy=0;exitPerimeter=0;" edge="1" parent="1" source="0ZdLkqDQG_sH-fMetIsI-55" target="0ZdLkqDQG_sH-fMetIsI-59">
          <mxGeometry width="50" height="50" relative="1" as="geometry">
            <mxPoint x="440" y="840" as="sourcePoint" />
            <mxPoint x="490" y="790" as="targetPoint" />
          </mxGeometry>
        </mxCell>
        <mxCell id="0ZdLkqDQG_sH-fMetIsI-62" value="" style="endArrow=none;html=1;rounded=0;entryX=1;entryY=0.5;entryDx=0;entryDy=0;exitX=0;exitY=0.5;exitDx=0;exitDy=0;" edge="1" parent="1" source="0ZdLkqDQG_sH-fMetIsI-56" target="0ZdLkqDQG_sH-fMetIsI-59">
          <mxGeometry width="50" height="50" relative="1" as="geometry">
            <mxPoint x="440" y="840" as="sourcePoint" />
            <mxPoint x="490" y="790" as="targetPoint" />
          </mxGeometry>
        </mxCell>
        <mxCell id="0ZdLkqDQG_sH-fMetIsI-63" value="" style="endArrow=none;html=1;rounded=0;entryX=1;entryY=0.5;entryDx=0;entryDy=0;exitX=-0.025;exitY=0.381;exitDx=0;exitDy=0;exitPerimeter=0;" edge="1" parent="1" source="0ZdLkqDQG_sH-fMetIsI-57" target="0ZdLkqDQG_sH-fMetIsI-59">
          <mxGeometry width="50" height="50" relative="1" as="geometry">
            <mxPoint x="440" y="840" as="sourcePoint" />
            <mxPoint x="490" y="790" as="targetPoint" />
          </mxGeometry>
        </mxCell>
        <mxCell id="0ZdLkqDQG_sH-fMetIsI-64" value="" style="endArrow=none;html=1;rounded=0;entryX=1;entryY=0.5;entryDx=0;entryDy=0;exitX=0;exitY=0.5;exitDx=0;exitDy=0;" edge="1" parent="1" source="0ZdLkqDQG_sH-fMetIsI-58" target="0ZdLkqDQG_sH-fMetIsI-59">
          <mxGeometry width="50" height="50" relative="1" as="geometry">
            <mxPoint x="440" y="840" as="sourcePoint" />
            <mxPoint x="490" y="790" as="targetPoint" />
          </mxGeometry>
        </mxCell>
        <mxCell id="0ZdLkqDQG_sH-fMetIsI-65" value="kode_pinjaman" style="ellipse;whiteSpace=wrap;html=1;align=center;fontStyle=4;" vertex="1" parent="1">
          <mxGeometry x="340" y="650" width="100" height="40" as="geometry" />
        </mxCell>
        <mxCell id="0ZdLkqDQG_sH-fMetIsI-66" value="tanggal_kembali" style="ellipse;whiteSpace=wrap;html=1;align=center;fontStyle=4;" vertex="1" parent="1">
          <mxGeometry x="310" y="710" width="100" height="40" as="geometry" />
        </mxCell>
        <mxCell id="0ZdLkqDQG_sH-fMetIsI-67" value="tanggal_pinjam" style="ellipse;whiteSpace=wrap;html=1;align=center;fontStyle=4;" vertex="1" parent="1">
          <mxGeometry x="340" y="760" width="100" height="40" as="geometry" />
        </mxCell>
        <mxCell id="0ZdLkqDQG_sH-fMetIsI-68" value="" style="endArrow=none;html=1;rounded=0;entryX=0;entryY=0.5;entryDx=0;entryDy=0;exitX=1;exitY=0.5;exitDx=0;exitDy=0;" edge="1" parent="1" source="0ZdLkqDQG_sH-fMetIsI-65" target="0ZdLkqDQG_sH-fMetIsI-59">
          <mxGeometry width="50" height="50" relative="1" as="geometry">
            <mxPoint x="460" y="840" as="sourcePoint" />
            <mxPoint x="510" y="790" as="targetPoint" />
          </mxGeometry>
        </mxCell>
        <mxCell id="0ZdLkqDQG_sH-fMetIsI-77" value="" style="endArrow=none;html=1;rounded=0;exitX=1;exitY=0.5;exitDx=0;exitDy=0;entryX=0;entryY=0.5;entryDx=0;entryDy=0;" edge="1" parent="1" source="0ZdLkqDQG_sH-fMetIsI-66" target="0ZdLkqDQG_sH-fMetIsI-59">
          <mxGeometry width="50" height="50" relative="1" as="geometry">
            <mxPoint x="440" y="750" as="sourcePoint" />
            <mxPoint x="480" y="780" as="targetPoint" />
          </mxGeometry>
        </mxCell>
        <mxCell id="0ZdLkqDQG_sH-fMetIsI-78" value="" style="endArrow=none;html=1;rounded=0;exitX=1.008;exitY=0.454;exitDx=0;exitDy=0;exitPerimeter=0;entryX=0.037;entryY=0.509;entryDx=0;entryDy=0;entryPerimeter=0;" edge="1" parent="1" source="0ZdLkqDQG_sH-fMetIsI-67" target="0ZdLkqDQG_sH-fMetIsI-59">
          <mxGeometry width="50" height="50" relative="1" as="geometry">
            <mxPoint x="440" y="830" as="sourcePoint" />
            <mxPoint x="490" y="790" as="targetPoint" />
          </mxGeometry>
        </mxCell>
        <mxCell id="0ZdLkqDQG_sH-fMetIsI-80" value="" style="endArrow=none;html=1;rounded=0;entryX=0.5;entryY=1;entryDx=0;entryDy=0;exitX=0.5;exitY=0;exitDx=0;exitDy=0;" edge="1" parent="1" source="0ZdLkqDQG_sH-fMetIsI-82" target="0ZdLkqDQG_sH-fMetIsI-59">
          <mxGeometry width="50" height="50" relative="1" as="geometry">
            <mxPoint x="520" y="950" as="sourcePoint" />
            <mxPoint x="460" y="860" as="targetPoint" />
          </mxGeometry>
        </mxCell>
        <mxCell id="0ZdLkqDQG_sH-fMetIsI-81" value="MANY" style="edgeLabel;html=1;align=center;verticalAlign=middle;resizable=0;points=[];" vertex="1" connectable="0" parent="0ZdLkqDQG_sH-fMetIsI-80">
          <mxGeometry x="0.371" y="-1" relative="1" as="geometry">
            <mxPoint as="offset" />
          </mxGeometry>
        </mxCell>
        <mxCell id="0ZdLkqDQG_sH-fMetIsI-82" value="BUKU" style="rounded=1;whiteSpace=wrap;html=1;" vertex="1" parent="1">
          <mxGeometry x="460" y="860" width="120" height="60" as="geometry" />
        </mxCell>
        <mxCell id="0ZdLkqDQG_sH-fMetIsI-84" value="judul_buku" style="ellipse;whiteSpace=wrap;html=1;align=center;fontStyle=4;" vertex="1" parent="1">
          <mxGeometry x="330" y="930" width="100" height="40" as="geometry" />
        </mxCell>
        <mxCell id="0ZdLkqDQG_sH-fMetIsI-85" value="nomor_buku" style="ellipse;whiteSpace=wrap;html=1;align=center;fontStyle=4;" vertex="1" parent="1">
          <mxGeometry x="340" y="990" width="100" height="40" as="geometry" />
        </mxCell>
        <mxCell id="0ZdLkqDQG_sH-fMetIsI-86" value="tahun_terbit" style="ellipse;whiteSpace=wrap;html=1;align=center;fontStyle=4;" vertex="1" parent="1">
          <mxGeometry x="425" y="1040" width="100" height="40" as="geometry" />
        </mxCell>
        <mxCell id="0ZdLkqDQG_sH-fMetIsI-87" value="penerbit" style="ellipse;whiteSpace=wrap;html=1;align=center;fontStyle=4;" vertex="1" parent="1">
          <mxGeometry x="540" y="1040" width="100" height="40" as="geometry" />
        </mxCell>
        <mxCell id="0ZdLkqDQG_sH-fMetIsI-88" value="jenis_buku" style="ellipse;whiteSpace=wrap;html=1;align=center;fontStyle=4;" vertex="1" parent="1">
          <mxGeometry x="620" y="990" width="100" height="40" as="geometry" />
        </mxCell>
        <mxCell id="0ZdLkqDQG_sH-fMetIsI-89" value="pengarang" style="ellipse;whiteSpace=wrap;html=1;align=center;fontStyle=4;" vertex="1" parent="1">
          <mxGeometry x="630" y="930" width="100" height="40" as="geometry" />
        </mxCell>
        <mxCell id="0ZdLkqDQG_sH-fMetIsI-90" value="" style="endArrow=none;html=1;rounded=0;entryX=0.301;entryY=0.987;entryDx=0;entryDy=0;entryPerimeter=0;exitX=1;exitY=0.5;exitDx=0;exitDy=0;" edge="1" parent="1" source="0ZdLkqDQG_sH-fMetIsI-84" target="0ZdLkqDQG_sH-fMetIsI-82">
          <mxGeometry width="50" height="50" relative="1" as="geometry">
            <mxPoint x="480" y="980" as="sourcePoint" />
            <mxPoint x="530" y="930" as="targetPoint" />
          </mxGeometry>
        </mxCell>
        <mxCell id="0ZdLkqDQG_sH-fMetIsI-91" value="" style="endArrow=none;html=1;rounded=0;entryX=0.392;entryY=1.017;entryDx=0;entryDy=0;entryPerimeter=0;exitX=1;exitY=0.5;exitDx=0;exitDy=0;" edge="1" parent="1" source="0ZdLkqDQG_sH-fMetIsI-85" target="0ZdLkqDQG_sH-fMetIsI-82">
          <mxGeometry width="50" height="50" relative="1" as="geometry">
            <mxPoint x="500" y="950" as="sourcePoint" />
            <mxPoint x="550" y="900" as="targetPoint" />
          </mxGeometry>
        </mxCell>
        <mxCell id="0ZdLkqDQG_sH-fMetIsI-92" value="" style="endArrow=none;html=1;rounded=0;entryX=0.478;entryY=1.013;entryDx=0;entryDy=0;exitX=0.5;exitY=0;exitDx=0;exitDy=0;entryPerimeter=0;" edge="1" parent="1" source="0ZdLkqDQG_sH-fMetIsI-86" target="0ZdLkqDQG_sH-fMetIsI-82">
          <mxGeometry width="50" height="50" relative="1" as="geometry">
            <mxPoint x="500" y="950" as="sourcePoint" />
            <mxPoint x="550" y="900" as="targetPoint" />
          </mxGeometry>
        </mxCell>
        <mxCell id="0ZdLkqDQG_sH-fMetIsI-93" value="" style="endArrow=none;html=1;rounded=0;entryX=0.572;entryY=1.02;entryDx=0;entryDy=0;entryPerimeter=0;exitX=0.43;exitY=-0.092;exitDx=0;exitDy=0;exitPerimeter=0;" edge="1" parent="1" source="0ZdLkqDQG_sH-fMetIsI-87" target="0ZdLkqDQG_sH-fMetIsI-82">
          <mxGeometry width="50" height="50" relative="1" as="geometry">
            <mxPoint x="500" y="950" as="sourcePoint" />
            <mxPoint x="550" y="900" as="targetPoint" />
          </mxGeometry>
        </mxCell>
        <mxCell id="0ZdLkqDQG_sH-fMetIsI-94" value="" style="endArrow=none;html=1;rounded=0;entryX=0.656;entryY=1.017;entryDx=0;entryDy=0;entryPerimeter=0;exitX=-0.013;exitY=0.288;exitDx=0;exitDy=0;exitPerimeter=0;" edge="1" parent="1" source="0ZdLkqDQG_sH-fMetIsI-88" target="0ZdLkqDQG_sH-fMetIsI-82">
          <mxGeometry width="50" height="50" relative="1" as="geometry">
            <mxPoint x="500" y="950" as="sourcePoint" />
            <mxPoint x="550" y="900" as="targetPoint" />
          </mxGeometry>
        </mxCell>
        <mxCell id="0ZdLkqDQG_sH-fMetIsI-96" value="" style="endArrow=none;html=1;rounded=0;entryX=0.834;entryY=1.013;entryDx=0;entryDy=0;entryPerimeter=0;exitX=0;exitY=0.5;exitDx=0;exitDy=0;" edge="1" parent="1" source="0ZdLkqDQG_sH-fMetIsI-89" target="0ZdLkqDQG_sH-fMetIsI-82">
          <mxGeometry width="50" height="50" relative="1" as="geometry">
            <mxPoint x="500" y="950" as="sourcePoint" />
            <mxPoint x="550" y="900" as="targetPoint" />
          </mxGeometry>
        </mxCell>
      </root>
    </mxGraphModel>
  </diagram>
</mxfile>
